<?xml version="1.0" encoding="utf-8"?>
<svg xmlns="http://www.w3.org/2000/svg" xmlns:xlink="http://www.w3.org/1999/xlink" style="margin: auto; background: none; display: block; shape-rendering: auto;" width="200px" height="200px" viewBox="0 0 100 100" preserveAspectRatio="xMidYMid">
<g transform="translate(50 50)">
<g>
<animateTransform attributeName="transform" type="rotate" values="0;25.714285714285715" keyTimes="0;1" dur="1.075268817204301s" repeatCount="indefinite"></animateTransform><path d="M35.71764269937197 -4.5 L48.71764269937197 -4.5 L48.71764269937197 4.5 L35.71764269937197 4.5 A36 36 0 0 1 34.13296093302528 11.442944461307576 L34.13296093302528 11.442944461307576 L45.84555621575673 17.08343306983583 L41.94060256369871 25.192152880957607 L30.22800728096726 19.551664272429353 A36 36 0 0 1 25.787827640598607 25.11947343354909 L25.787827640598607 25.11947343354909 L33.893195064762146 35.283282705633475 L26.856711722549875 40.89469092236208 L18.751344298386336 30.73088165027769 A36 36 0 0 1 12.335098817000397 33.820782622151654 L12.335098817000397 33.820782622151654 L15.227870958432485 46.49484548051536 L6.453519748796069 48.49753388612219 L3.56074760736398 35.82347102775849 A36 36 0 0 1 -3.5607476073639757 35.82347102775849 L-3.5607476073639757 35.82347102775849 L-6.4535197487960625 48.49753388612219 L-15.22787095843248 46.49484548051536 L-12.335098817000393 33.820782622151654 A36 36 0 0 1 -18.751344298386332 30.730881650277695 L-18.751344298386332 30.730881650277695 L-26.856711722549868 40.89469092236208 L-33.89319506476214 35.28328270563348 L-25.787827640598607 25.119473433549093 A36 36 0 0 1 -30.228007280967258 19.551664272429356 L-30.228007280967258 19.551664272429356 L-41.940602563698704 25.192152880957615 L-45.84555621575673 17.083433069835834 L-34.13296093302528 11.442944461307578 A36 36 0 0 1 -35.71764269937197 4.500000000000006 L-35.71764269937197 4.500000000000006 L-48.71764269937197 4.500000000000008 L-48.71764269937197 -4.499999999999996 L-35.71764269937197 -4.499999999999997 A36 36 0 0 1 -34.13296093302528 -11.44294446130757 L-34.13296093302528 -11.44294446130757 L-45.84555621575673 -17.083433069835824 L-41.94060256369871 -25.192152880957604 L-30.22800728096726 -19.55166427242935 A36 36 0 0 1 -25.78782764059861 -25.119473433549082 L-25.78782764059861 -25.119473433549082 L-33.893195064762146 -35.28328270563347 L-26.856711722549882 -40.894690922362074 L-18.751344298386343 -30.73088165027769 A36 36 0 0 1 -12.3350988170004 -33.820782622151654 L-12.3350988170004 -33.820782622151654 L-15.22787095843249 -46.49484548051536 L-6.453519748796074 -48.49753388612219 L-3.560747607363984 -35.82347102775849 A36 36 0 0 1 3.5607476073639712 -35.82347102775849 L3.5607476073639712 -35.82347102775849 L6.453519748796056 -48.49753388612219 L15.227870958432472 -46.494845480515366 L12.335098817000388 -33.82078262215166 A36 36 0 0 1 18.75134429838633 -30.730881650277695 L18.75134429838633 -30.730881650277695 L26.856711722549864 -40.89469092236209 L33.89319506476214 -35.28328270563348 L25.787827640598604 -25.119473433549096 A36 36 0 0 1 30.228007280967258 -19.55166427242936 L30.228007280967258 -19.55166427242936 L41.940602563698704 -25.192152880957618 L45.84555621575673 -17.08343306983584 L34.13296093302528 -11.442944461307583 A36 36 0 0 1 35.71764269937197 -4.500000000000011 M0 -20A20 20 0 1 0 0 20 A20 20 0 1 0 0 -20" fill="#0078ac"></path></g></g>
<!-- [ldio] generated by https://loading.io/ --></svg>